<svg width="24" height="24" viewBox="0 0 24 24" fill="none" xmlns="http://www.w3.org/2000/svg">
<path d="M13.1713 2.91374C14.7332 1.35207 17.2655 1.35232 18.8276 2.91374L21.0854 5.17156C22.6472 6.7336 22.6472 9.26577 21.0854 10.8278L10.9457 20.9675C10.6353 21.2778 10.2314 21.4777 9.79632 21.5358L3.92815 22.318C2.62208 22.4919 1.50693 21.3771 1.68108 20.071L2.46331 14.2028C2.52142 13.7678 2.72137 13.3638 3.03167 13.0534L13.1713 2.91374ZM5.70647 15.2926C5.31592 14.9025 4.68281 14.9022 4.29241 15.2926C3.90206 15.6831 3.90228 16.3162 4.29241 16.7067L7.29241 19.7067C7.68292 20.0972 8.31594 20.0972 8.70647 19.7067C9.097 19.3162 9.097 18.6832 8.70647 18.2926L5.70647 15.2926ZM16.7065 4.29265C16.3159 3.9025 15.6828 3.90225 15.2924 4.29265C14.9021 4.68305 14.9023 5.31617 15.2924 5.70671L18.2924 8.70671C18.6829 9.09722 19.3159 9.09719 19.7065 8.70671C20.097 8.31619 20.097 7.68317 19.7065 7.29265L16.7065 4.29265Z" fill="black"/>
</svg>
